<svg width="41" height="41" viewBox="0 0 41 41" fill="none" xmlns="http://www.w3.org/2000/svg">
<circle cx="20.5" cy="20.5" r="20.5" fill="#000209"/>
<path d="M12.3037 0.202606C6.22552 0.57098 3.18643 1.95238 1.74978 4.99146C0.644654 7.34906 0.294699 9.70665 0.110512 16.0795L0 20.5L2.83648 20.3711C11.1617 20.0027 14.2192 19.1923 16.7057 16.7058C19.1002 14.2929 19.9106 11.6222 20.3158 4.78886C20.4079 3.11276 20.5 1.36298 20.5 0.865679V0L17.6083 0.0184193C16.0058 0.0368366 13.6114 0.110512 12.3037 0.202606Z" fill="white"/>
<path d="M20.6286 2.89173C20.9409 10.1119 21.5103 12.8562 23.2003 15.3428C24.6698 17.4978 27.0578 18.9712 30.1071 19.5975C31.8338 19.9474 34.534 20.2053 38.1711 20.3711L41 20.5L40.8714 16.1532C40.6877 9.81716 40.3387 7.31222 39.2549 4.99146C38.1895 2.72597 36.224 1.39982 32.991 0.718328C31.1541 0.349955 26.3965 0 22.7778 0H20.5L20.6286 2.89173Z" fill="white"/>
<path d="M0 22.7839C0 26.173 0.313399 30.9434 0.663669 32.7116C1.53013 37.2978 3.5027 39.3423 7.96403 40.2817C9.75225 40.65 14.6007 40.9816 18.3246 41H20.5L20.3894 38.274C20.0022 29.8014 19.228 26.8729 16.6655 24.2943C14.1951 21.8261 11.0058 20.9789 2.91277 20.6289L0 20.5V22.7839Z" fill="white"/>
<path d="M36.8118 20.6293C34.0565 20.7586 30.9704 21.1279 29.4091 21.5342C27.2231 22.0883 25.6801 22.9194 24.3208 24.286C21.8042 26.8162 20.9776 29.882 20.6286 38.082L20.5 41H22.7778C24.0269 41 26.4149 40.9077 28.0865 40.8153C35.9301 40.3536 38.5569 38.8761 39.8979 34.1667C40.5224 32.0059 40.7428 29.9928 40.8898 24.877L41 20.5L39.457 20.5369C38.612 20.5554 37.418 20.5923 36.8118 20.6293Z" fill="white"/>
</svg>
