<?xml version="1.0" standalone="no"?>
<!DOCTYPE svg PUBLIC "-//W3C//DTD SVG 20010904//EN" "http://www.w3.org/TR/2001/REC-SVG-20010904/DTD/svg10.dtd">
<svg xmlns="http://www.w3.org/2000/svg" version="1.0" width="2481.000000pt" height="688.000000pt" viewBox="0 0 2481.000000 688.000000" preserveAspectRatio="xMidYMid meet">
<metadata>
Created by potrace 1.16, written by Peter Selinger 2001-2019
<meta name="Producer" content="Online-Convert"/></metadata>
<g transform="translate(0.000000,688.000000) scale(0.100000,-0.100000)" fill="#000000" stroke="none">
<path d="M3205 6873 c-691 -57 -1287 -279 -1818 -676 -708 -530 -1186 -1312 -1331 -2178 -36 -214 -46 -339 -46 -580 0 -309 27 -540 96 -820 321 -1308 1376 -2308 2699 -2559 310 -58 -24 -54 4253 -57 l3912 -3 0 1620 0 1620 -775 0 -775 0 0 -875 0 -875 -3012 0 c-3273 0 -3079 -3 -3306 55 -394 99 -757 325 -1009 628 -321 386 -475 827 -460 1322 6 192 19 281 66 458 180 673 732 1216 1410 1386 214 54 -36 51 4070 51 l3791 0 0 745 0 745 -3862 -2 c-2125 -1 -3881 -3 -3903 -5z"/>
<path d="M12235 6868 c-3 -7 -4 -1554 -3 -3438 l3 -3425 773 -3 772 -2 0 875 0 875 2344 0 2345 0 58 -53 c44 -40 237 -216 309 -282 6 -5 53 -48 105 -95 51 -47 128 -116 169 -155 42 -38 120 -110 175 -160 55 -49 154 -139 220 -200 131 -119 311 -284 329 -300 6 -6 112 -102 236 -215 124 -112 245 -223 270 -247 l45 -43 1085 0 1085 1 -35 31 c-19 17 -62 56 -95 87 -33 31 -141 131 -240 221 -99 91 -218 201 -265 245 -47 44 -110 103 -141 130 -116 106 -186 171 -249 230 -36 33 -204 189 -375 345 -170 156 -335 307 -365 336 -30 28 -118 109 -195 179 -77 71 -172 158 -210 194 -39 36 -120 111 -180 166 -146 133 -246 226 -325 299 -36 34 -94 88 -130 120 -36 33 -94 87 -130 120 -36 34 -90 84 -120 111 -88 80 -298 274 -382 352 l-77 73 -2630 0 -2631 0 0 1075 0 1075 2796 0 2796 0 162 152 c88 83 197 185 241 227 124 115 202 188 305 286 114 108 364 342 475 445 92 86 229 215 330 312 l70 68 -4358 0 c-3477 0 -4359 -3 -4362 -12z"/>
<path d="M21423 4753 c-600 -582 -1091 -1062 -1091 -1068 -1 -13 2244 -2090 2258 -2090 6 0 508 493 1116 1095 1049 1039 1104 1095 1085 1110 -10 8 -524 463 -1141 1010 -617 547 -1125 996 -1129 998 -4 1 -498 -474 -1098 -1055z"/>
</g>
</svg>
