<?xml version="1.0" encoding="UTF-8"?> <svg xmlns="http://www.w3.org/2000/svg" width="596" height="166" viewBox="0 0 596 166" fill="none"><path d="M263 35.5V0H81C54 1.33333 0 19.5 0 81.5C0 143.5 53 163 79.5 165H262.5V87.5H225.5V129H81C66.8333 127 38.5 114.7 38.5 81.5C38.5 48.3 66.8333 37 81 35.5H263Z" fill="white"></path><path d="M293 165V0H502.5L464.5 35.5H330.5V87H456.5L541 165H489L443 123H330.5V165H293Z" fill="white"></path><path d="M487.5 76.5L540 25.5L595 74L542 127L487.5 76.5Z" fill="white"></path></svg> 