<?xml version="1.0" standalone="no"?>
<!DOCTYPE svg PUBLIC "-//W3C//DTD SVG 20010904//EN"
 "http://www.w3.org/TR/2001/REC-SVG-20010904/DTD/svg10.dtd">
<svg version="1.0" xmlns="http://www.w3.org/2000/svg"
 width="2479.000000pt" height="686.000000pt" viewBox="0 0 2479.000000 686.000000"
 preserveAspectRatio="xMidYMid meet">
<metadata>
Created by potrace 1.16, written by Peter Selinger 2001-2019
</metadata>
<g transform="translate(0.000000,686.000000) scale(0.100000,-0.100000)"
fill="#000000" stroke="none">
<path d="M2970 6853 c-14 -2 -80 -13 -147 -24 -510 -84 -1041 -313 -1468 -634
-710 -534 -1183 -1308 -1331 -2183 -23 -137 -24 -164 -24 -572 0 -411 1 -434
25 -576 123 -726 461 -1368 996 -1889 547 -533 1192 -843 1983 -952 111 -16
439 -17 4029 -20 l3907 -3 0 1620 0 1620 -775 0 -775 0 0 -875 0 -875 -3052 2
-3053 3 -110 23 c-753 160 -1331 709 -1516 1441 -113 445 -66 911 135 1326
269 557 749 933 1371 1077 l100 23 3838 2 3837 3 0 735 0 735 -3972 -1 c-2185
-1 -3984 -4 -3998 -6z"/>
<path d="M12202 3433 l3 -3428 773 -3 772 -2 0 875 0 875 2345 0 2345 0 957
-874 958 -875 1085 0 c927 -1 1082 1 1070 13 -8 8 -800 737 -1759 1620 l-1743
1606 -2629 0 -2629 0 0 1075 0 1075 2798 1 2797 0 758 713 c417 392 768 722
780 734 l21 22 -4352 0 -4352 0 2 -3427z"/>
<path d="M21393 4753 c-600 -582 -1091 -1062 -1091 -1068 -1 -13 2244 -2090
2258 -2090 6 0 508 493 1116 1095 1049 1039 1104 1095 1085 1110 -10 8 -524
463 -1141 1010 -617 547 -1125 996 -1129 998 -4 1 -498 -474 -1098 -1055z"/>
</g>
</svg>
