<svg width="42" height="42" viewBox="0 0 42 42" fill="none" xmlns="http://www.w3.org/2000/svg">
<path d="M33.0895 0H8.91052C3.98937 0 0 3.98937 0 8.91052V33.0895C0 38.0106 3.98937 42 8.91052 42H33.0895C38.0106 42 42 38.0106 42 33.0895V8.91052C42 3.98937 38.0106 0 33.0895 0Z" fill="white"/>
<path d="M33.5 12C34.8807 12 36 10.8807 36 9.5C36 8.11929 34.8807 7 33.5 7C32.1193 7 31 8.11929 31 9.5C31 10.8807 32.1193 12 33.5 12Z" fill="#000209"/>
<path d="M26.2927 11H8V33H13.0915V25.8426H22.8475L27.2988 33H33L28.0914 25.8096C29.6158 25.5457 30.7134 24.9191 31.3841 23.9296C32.0549 22.9401 32.3902 21.3568 32.3902 19.2459V17.5967C32.3902 16.3433 32.2683 15.3538 32.0549 14.5952C31.8414 13.8366 31.4755 13.1769 30.9573 12.5832C30.4085 12.0225 29.7988 11.6267 29.067 11.3628C28.3353 11.1319 27.4207 11 26.2927 11ZM25.4695 20.994H13.0915V15.8486H25.4695C26.1707 15.8486 26.6585 15.9805 26.9024 16.2114C27.1463 16.4423 27.2988 16.8711 27.2988 17.4978V19.3448C27.2988 20.0045 27.1463 20.4333 26.9024 20.6641C26.6585 20.8951 26.1707 20.994 25.4695 20.994Z" fill="#000209"/>
</svg>
