<svg width="45" height="36" viewBox="0 0 45 36" fill="none" xmlns="http://www.w3.org/2000/svg">
<path d="M3.09307 15.4979C15.1749 10.418 23.2295 7.06883 27.2568 5.45051C38.7689 0.829919 41.1581 0.0274242 42.7185 0.000236888C43.0617 -0.00507557 43.8257 0.0767982 44.3242 0.465858C44.7386 0.79398 44.8552 1.23773 44.9134 1.54929C44.9652 1.86054 45.0365 2.56991 44.9782 3.12365C44.3566 9.44861 41.6566 24.7972 40.284 31.8816C39.7077 34.879 38.5617 35.884 37.4545 35.9822C35.0459 36.1959 33.22 34.4472 30.8891 32.9728C27.2439 30.6647 25.1849 29.2285 21.6432 26.9766C17.5512 24.3741 20.2058 22.9435 22.5367 20.606C23.1453 19.9942 33.751 10.6848 33.9517 9.84048C33.9776 9.73485 34.0035 9.3411 33.7575 9.13361C33.5179 8.92548 33.1618 8.99673 32.9028 9.05298C32.5337 9.13298 26.7129 12.8505 15.421 20.2048C13.7699 21.301 12.2743 21.8354 10.9275 21.8073C9.45126 21.7766 6.60238 20.9998 4.48514 20.336C1.89524 19.5217 -0.170205 19.091 0.0110874 17.7079C0.101734 16.9879 1.13122 16.2511 3.09307 15.4979Z" fill="white"/>
</svg>
