<?xml version="1.0" encoding="UTF-8"?> <svg xmlns="http://www.w3.org/2000/svg" viewBox="0 0 100.00 100.00" data-guides="{&quot;vertical&quot;:[],&quot;horizontal&quot;:[]}"><path fill="#93b0c8" stroke="#93b0c8" fill-opacity="1" stroke-width="1" stroke-opacity="1" color="rgb(51, 51, 51)" fill-rule="evenodd" id="tSvga8e3a71527" title="Path 3" d="M23.812 25.281C17.7261 31.7263 13.9995 40.441 13.9995 50C13.9995 59.559 17.7261 68.273 23.812 74.719C24.3016 74.2607 24.7912 73.8023 25.2808 73.344C19.5308 67.2542 15.9996 59.039 15.9996 50C15.9996 40.961 19.5308 32.746 25.2808 26.656C24.7912 26.1977 24.3016 25.7393 23.812 25.281M76.187 25.281C75.6974 25.7393 75.2078 26.1977 74.7182 26.656C80.4682 32.7458 83.9994 40.961 83.9994 50C84.6661 50 85.3327 50 85.9994 50C85.9994 40.4414 82.2728 31.727 76.187 25.281ZM32.312 32.3122C27.7886 36.8356 24.9995 43.1012 24.9995 50.0002C24.9995 56.8992 27.7886 63.1642 32.312 67.6882C32.7912 67.209 33.2703 66.7299 33.7495 66.2507C29.5854 62.0866 26.9995 56.3562 26.9995 50.0007C26.9995 43.6452 29.5854 37.9147 33.7495 33.7507C33.2703 33.2712 32.7912 32.7917 32.312 32.3122M67.687 32.3122C67.2078 32.7914 66.7287 33.2705 66.2495 33.7497C70.4136 37.9138 72.9995 43.6442 72.9995 49.9997C72.9995 56.3552 70.4136 62.0857 66.2495 66.2497C66.7287 66.7289 67.2078 67.208 67.687 67.6872C72.2104 63.1638 74.9995 56.8982 74.9995 49.9992C74.9995 43.1002 72.2104 36.8352 67.687 32.3122ZM49.999 36.9997C42.831 36.9997 36.999 42.8317 36.999 49.9997C36.999 57.1677 42.831 62.9997 49.999 62.9997C57.167 62.9997 62.999 57.1677 62.999 49.9997C62.999 42.8317 57.167 36.9997 49.999 36.9997ZM49.999 38.9997C56.0849 38.9997 60.999 43.9138 60.999 49.9997C60.999 56.0856 56.0849 60.9997 49.999 60.9997C43.9131 60.9997 38.999 56.0856 38.999 49.9997C38.999 43.9138 43.9131 38.9997 49.999 38.9997ZM83.499 55.9057C82.3271 62.5893 79.1826 68.6127 74.7178 73.3437C75.2074 73.802 75.697 74.2604 76.1866 74.7187C80.9132 69.7109 84.2296 63.3277 85.4678 56.2497C84.8115 56.135 84.1553 56.0204 83.499 55.9057"></path><defs></defs></svg> 