<?xml version="1.0" encoding="UTF-8"?> <svg xmlns="http://www.w3.org/2000/svg" viewBox="0 0 100.00 100.00" data-guides="{&quot;vertical&quot;:[],&quot;horizontal&quot;:[]}"><path fill="#93b0c8" stroke="none" fill-opacity="1" stroke-width="1" stroke-opacity="1" color="rgb(51, 51, 51)" fill-rule="evenodd" id="tSvge1b7443f1a" title="Path 11" d="M85.5 28C82.47 28 79.44 28 76.41 28C76.391 27.9352 76.3676 27.8717 76.34 27.81C74.79 24.81 73.24 21.81 71.69 18.81C71.4309 18.3098 70.9133 17.997 70.35 18C63.45 18 56.55 18 49.65 18C49.0903 18.0007 48.5775 18.313 48.32 18.81C46.77 21.81 45.22 24.81 43.67 27.81C43.6424 27.8717 43.619 27.9352 43.6 28C34.2333 28 24.8667 28 15.5 28C11.9124 28.0055 9.0055 30.9124 9 34.5C9 47.8333 9 61.1667 9 74.5C9.0055 78.0876 11.9124 80.9945 15.5 81C38.8333 81 62.1667 81 85.5 81C89.0876 80.9945 91.9945 78.0876 92 74.5C92 61.1667 92 47.8333 92 34.5C91.9945 30.9124 89.0876 28.0055 85.5 28ZM50.56 21C56.8533 21 63.1467 21 69.44 21C70.6433 23.3333 71.8467 25.6667 73.05 28C64.35 28 55.65 28 46.95 28C48.1533 25.6667 49.3567 23.3333 50.56 21M12 74.5C12 61.1667 12 47.8333 12 34.5C12 32.567 13.567 31 15.5 31C19.3333 31 23.1667 31 27 31C27 46.6667 27 62.3333 27 78C23.1667 78 19.3333 78 15.5 78C13.567 78 12 76.433 12 74.5ZM89 74.5C89 76.433 87.433 78 85.5 78C67 78 48.5 78 30 78C30 62.3333 30 46.6667 30 31C48.5 31 67 31 85.5 31C87.433 31 89 32.567 89 34.5C89 47.8333 89 61.1667 89 74.5"></path><path fill="#93b0c8" stroke="none" fill-opacity="1" stroke-width="1" stroke-opacity="1" color="rgb(51, 51, 51)" fill-rule="evenodd" id="tSvg15723354c1e" title="Path 12" d="M60 36C45.3738 36 36.2324 51.8333 43.5455 64.5C50.8586 77.1667 69.1414 77.1667 76.4545 64.5C78.1221 61.6116 79 58.3352 79 55C79 44.5066 70.4934 36 60 36ZM60 71C47.6832 71 39.9852 57.6667 46.1436 47C52.302 36.3333 67.698 36.3333 73.8564 47C75.2607 49.4323 76 52.1914 76 55C76 63.8366 68.8366 71 60 71Z"></path><path fill="#93b0c8" stroke="none" fill-opacity="1" stroke-width="1" stroke-opacity="1" color="rgb(51, 51, 51)" fill-rule="evenodd" id="tSvg2b36b04b0a" title="Path 13" d="M60 44C51.5322 44 46.2398 53.1667 50.4737 60.5C54.7076 67.8333 65.2924 67.8333 69.5263 60.5C70.4917 58.8278 71 56.9309 71 55C71 48.9249 66.0751 44 60 44ZM60 63C53.8416 63 49.9926 56.3333 53.0718 51C56.151 45.6667 63.849 45.6667 66.9282 51C67.6303 52.2162 68 53.5957 68 55C68 59.4183 64.4183 63 60 63ZM15.5 23C18.5 23 21.5 23 24.5 23C25.6547 23 26.3764 21.75 25.799 20.75C25.5311 20.2859 25.0359 20 24.5 20C21.5 20 18.5 20 15.5 20C14.3453 20 13.6236 21.25 14.201 22.25C14.4689 22.7141 14.9641 23 15.5 23Z"></path><defs></defs></svg> 