<?xml version="1.0" encoding="UTF-8"?> <svg xmlns="http://www.w3.org/2000/svg" viewBox="0 0 100.00 100.00" data-guides="{&quot;vertical&quot;:[],&quot;horizontal&quot;:[]}"><path fill="#93b0c8" stroke="none" fill-opacity="1" stroke-width="1" stroke-opacity="1" color="rgb(51, 51, 51)" fill-rule="evenodd" id="tSvg10c154e8b3f" title="Path 14" d="M50 30.5C39.799 30.5 31.5 38.799 31.5 49C31.5 59.201 39.799 67.5 50 67.5C60.201 67.5 68.5 59.201 68.5 49C68.5 38.799 60.201 30.5 50 30.5ZM50 64.5C41.453 64.5 34.5 57.547 34.5 49C34.5 40.453 41.453 33.5 50 33.5C58.547 33.5 65.5 40.453 65.5 49C65.5 57.547 58.547 64.5 50 64.5Z"></path><path fill="#93b0c8" stroke="none" fill-opacity="1" stroke-width="1" stroke-opacity="1" color="rgb(51, 51, 51)" fill-rule="evenodd" id="tSvg9d5363af93" title="Path 15" d="M95.225 41.501C91.2357 40.8973 87.2463 40.2937 83.257 39.69C82.5953 37.4633 81.707 35.3104 80.606 33.265C82.998 30.0207 85.39 26.7763 87.782 23.532C88.2221 22.9349 88.16 22.1059 87.636 21.581C84.564 18.5093 81.492 15.4377 78.42 12.366C77.8953 11.8417 77.0663 11.7792 76.469 12.219C73.235 14.603 70.001 16.987 66.767 19.371C64.7103 18.2533 62.5434 17.3515 60.301 16.68C59.7007 12.712 59.1003 8.744 58.5 4.776C58.3892 4.0425 57.7589 3.5001 57.017 3.5C52.673 3.5 48.329 3.5 43.985 3.5C43.2431 3.5001 42.6128 4.0425 42.502 4.776C41.9017 8.744 41.3013 12.712 40.701 16.68C38.4588 17.352 36.2919 18.2537 34.235 19.371C31.001 16.987 27.767 14.603 24.533 12.219C23.9358 11.7788 23.1065 11.8412 22.582 12.366C19.5103 15.4377 16.4387 18.5093 13.367 21.581C12.8427 22.1057 12.7802 22.9347 13.22 23.532C15.612 26.7763 18.004 30.0207 20.396 33.265C19.295 35.3104 18.4067 37.4633 17.745 39.69C13.7557 40.2937 9.7663 40.8973 5.777 41.501C5.0435 41.6118 4.5011 42.2421 4.501 42.984C4.501 47.328 4.501 51.672 4.501 56.016C4.501 56.7575 5.0429 57.3878 5.776 57.499C9.785 58.1057 13.794 58.7123 17.803 59.319C18.4694 61.5165 19.3563 63.6409 20.45 65.66C18.0397 68.9293 15.6293 72.1987 13.219 75.468C12.7792 76.0653 12.8417 76.8943 13.366 77.419C16.4377 80.4907 19.5093 83.5623 22.581 86.634C23.1055 87.1588 23.9348 87.2212 24.532 86.781C27.812 84.363 31.092 81.945 34.372 79.527C36.3793 80.6051 38.4899 81.4785 40.672 82.134C41.2817 86.164 41.8913 90.194 42.501 94.224C42.6118 94.9575 43.2421 95.4999 43.984 95.5C48.328 95.5 52.672 95.5 57.016 95.5C57.7579 95.4999 58.3882 94.9575 58.499 94.224C59.1087 90.194 59.7183 86.164 60.328 82.134C62.5101 81.4785 64.6207 80.6051 66.628 79.527C69.908 81.945 73.188 84.363 76.468 86.781C77.065 87.221 77.894 87.158 78.419 86.634C81.491 83.5623 84.563 80.4907 87.635 77.419C88.1594 76.8943 88.2215 76.065 87.781 75.468C85.3707 72.1987 82.9603 68.9293 80.55 65.66C81.6446 63.6413 82.5315 61.5168 83.197 59.319C87.206 58.7123 91.215 58.1057 95.224 57.499C95.9571 57.3878 96.499 56.7575 96.499 56.016C96.499 51.672 96.499 47.328 96.499 42.984C96.4995 42.2426 95.958 41.6123 95.225 41.501ZM93.5 54.726C89.599 55.3163 85.698 55.9067 81.797 56.497C81.2092 56.5861 80.7293 57.0135 80.573 57.587C79.8661 60.1887 78.823 62.6871 77.47 65.019C77.17 65.536 77.205 66.181 77.56 66.662C79.9067 69.845 82.2533 73.028 84.6 76.211C82.1363 78.6747 79.6727 81.1383 77.209 83.602C74.0163 81.2483 70.8237 78.8947 67.631 76.541C67.1521 76.1879 66.5098 76.1514 65.994 76.448C63.6718 77.7838 61.1861 78.8124 58.599 79.508C58.0233 79.6627 57.5939 80.1436 57.505 80.733C56.9117 84.656 56.3183 88.579 55.725 92.502C52.241 92.502 48.757 92.502 45.273 92.502C44.6797 88.579 44.0863 84.656 43.493 80.733C43.4036 80.1438 42.9744 79.6631 42.399 79.508C39.8119 78.8124 37.3262 77.7838 35.004 76.448C34.488 76.1522 33.8461 76.1886 33.367 76.541C30.1743 78.8947 26.9817 81.2483 23.789 83.602C21.3253 81.1383 18.8617 78.6747 16.398 76.211C18.7447 73.028 21.0913 69.845 23.438 66.662C23.7925 66.1811 23.8279 65.5357 23.528 65.019C22.1748 62.6872 21.1317 60.1887 20.425 57.587C20.2691 57.0132 19.789 56.5856 19.201 56.497C15.3 55.9067 11.399 55.3163 7.498 54.726C7.498 51.242 7.498 47.758 7.498 44.274C11.3813 43.6867 15.2647 43.0993 19.148 42.512C19.7392 42.4227 20.2209 41.9909 20.374 41.413C21.0724 38.7831 22.1144 36.2567 23.473 33.899C23.7698 33.3829 23.7333 32.7402 23.38 32.261C21.0527 29.104 18.7253 25.947 16.398 22.79C18.8617 20.3263 21.3253 17.8627 23.789 15.399C26.9367 17.7193 30.0843 20.0397 33.232 22.36C33.7133 22.7146 34.3592 22.7496 34.876 22.449C37.2428 21.0727 39.7816 20.0161 42.426 19.307C43.0021 19.1527 43.432 18.6717 43.521 18.082C44.105 14.221 44.689 10.36 45.273 6.499C48.757 6.499 52.241 6.499 55.725 6.499C56.309 10.36 56.893 14.221 57.477 18.082C57.566 18.6717 57.9959 19.1527 58.572 19.307C61.2164 20.0163 63.7551 21.0728 66.122 22.449C66.6387 22.7499 67.2848 22.7149 67.766 22.36C70.9137 20.0397 74.0613 17.7193 77.209 15.399C79.6727 17.8627 82.1363 20.3263 84.6 22.79C82.2727 25.947 79.9453 29.104 77.618 32.261C77.2647 32.7402 77.2282 33.3829 77.525 33.899C78.8832 36.2569 79.9251 38.7832 80.624 41.413C80.7774 41.9908 81.2589 42.4225 81.85 42.512C85.7333 43.0993 89.6167 43.6867 93.5 44.274C93.5 47.758 93.5 51.242 93.5 54.726Z"></path><defs></defs></svg> 