<?xml version="1.0" encoding="UTF-8"?> <svg xmlns="http://www.w3.org/2000/svg" viewBox="0 0 100.00 100.00" data-guides="{&quot;vertical&quot;:[],&quot;horizontal&quot;:[]}"><path fill="#93b0c8" stroke="none" fill-opacity="1" stroke-width="1" stroke-opacity="1" color="rgb(51, 51, 51)" fill-rule="evenodd" id="tSvg188a9ee4956" title="Path 9" d="M79.5 39.5C77.0188 39.5005 74.562 39.9898 72.27 40.94C68.2433 32.96 64.2167 24.98 60.19 17C61.2933 17 62.3967 17 63.5 17C64.6547 17 65.3764 15.75 64.799 14.75C64.5311 14.2859 64.0359 14 63.5 14C59.8333 14 56.1667 14 52.5 14C51.3453 14 50.6236 15.25 51.201 16.25C51.4689 16.7141 51.9641 17 52.5 17C53.94 17 55.38 17 56.82 17C59.1767 21.6667 61.5333 26.3333 63.89 31C54.26 31 44.63 31 35 31C34.4403 31.0007 33.9275 31.313 33.67 31.81C32.0633 34.8733 30.4567 37.9367 28.85 41C15.3679 35.3292 0.8027 46.3797 2.6327 60.891C4.4626 75.4023 21.3153 82.4908 32.9674 73.6504C37.0088 70.5842 39.6562 66.0292 40.32 61C43.92 61 47.52 61 51.12 61C51.6855 61.0011 52.2036 60.6841 52.46 60.18C56.82 51.5433 61.18 42.9067 65.54 34.27C66.8933 36.9367 68.2467 39.6033 69.6 42.27C57.137 49.925 57.6343 68.201 70.4953 75.1668C83.3562 82.1326 98.935 72.5639 98.5371 57.9431C98.2566 47.6376 89.8092 39.4361 79.5 39.5ZM21.5 74.5C9.1832 74.4855 1.5009 61.1431 7.6719 50.4837C11.662 43.5914 20.1135 40.6829 27.5 43.66C24.8567 48.71 22.2133 53.76 19.57 58.81C19.0531 59.8077 19.7763 60.9986 20.9 61C26.36 61 31.82 61 37.28 61C36.0515 68.766 29.3625 74.4885 21.5 74.5ZM30.12 45C34.5661 47.8541 37.3166 52.7189 37.47 58C32.77 58 28.07 58 23.37 58C25.62 53.6667 27.87 49.3333 30.12 45M50.19 58C46.95 58 43.71 58 40.47 58C40.2883 51.611 36.9063 45.7414 31.47 42.38C32.9367 39.5867 34.4033 36.7933 35.87 34C44.6867 34 53.5033 34 62.32 34C58.2767 42 54.2333 50 50.19 58M79.5 74.5C67.1834 74.4327 59.5583 61.0575 65.7749 50.4247C67.0601 48.2264 68.8515 46.3667 71 45C73.47 49.8933 75.94 54.7867 78.41 59.68C79.1601 60.5579 80.5793 60.2946 80.9645 59.206C81.0653 58.921 81.0777 58.6122 81 58.32C78.5433 53.4233 76.0867 48.5267 73.63 43.63C85.077 39.0835 97.1531 48.6336 95.367 60.8202C94.2135 68.6902 87.454 74.5179 79.5 74.5Z"></path><path fill="#93b0c8" stroke="none" fill-opacity="1" stroke-width="1" stroke-opacity="1" color="rgb(51, 51, 51)" fill-rule="evenodd" id="tSvgc8841934d6" title="Path 10" d="M27.5 27C32.1667 27 36.8333 27 41.5 27C42.6547 27 43.3764 25.75 42.799 24.75C42.5311 24.2859 42.0359 24 41.5 24C36.8333 24 32.1667 24 27.5 24C26.3453 24 25.6236 25.25 26.201 26.25C26.4689 26.7141 26.9641 27 27.5 27Z"></path><defs></defs></svg> 