<?xml version="1.0" encoding="UTF-8"?> <svg xmlns="http://www.w3.org/2000/svg" viewBox="0 0 100.00 100.00" data-guides="{&quot;vertical&quot;:[],&quot;horizontal&quot;:[]}"><path fill="#93b0c8" stroke="" fill-opacity="1" stroke-width="0.5" stroke-opacity="0" color="rgb(51, 51, 51)" fill-rule="evenodd" id="tSvg792ddb15f4" title="Path 7" d="M54.354 58.447C54.354 42.8227 54.354 27.1983 54.354 11.574C54.354 6.282 50.049 1.976 44.758 1.976C39.463 1.976 35.155 6.282 35.155 11.574C35.155 27.2037 35.155 42.8333 35.155 58.463C28.234 62.04 23.805 69.235 23.805 77.073C23.805 88.625 33.204 98.023 44.758 98.023C56.307 98.023 65.704 88.625 65.704 77.073C65.7139 69.2269 61.3315 62.0352 54.354 58.447ZM44.758 95.023C34.859 95.023 26.805 86.971 26.805 77.073C26.805 70.15 30.834 63.809 37.081 60.849C37.7166 60.6628 38.1538 60.0803 38.155 59.418C38.155 43.4697 38.155 27.5213 38.155 11.573C38.155 7.935 41.117 4.975 44.758 4.975C48.3998 4.9794 51.3507 7.9312 51.354 11.573C51.354 27.0543 51.354 42.5357 51.354 58.017C51.1765 58.1656 51.0367 58.3541 50.946 58.567C50.6232 59.33 50.98 60.2102 51.743 60.533C51.852 60.579 51.956 60.635 52.064 60.683C52.159 60.742 52.261 60.788 52.369 60.825C58.679 63.7716 62.7097 70.1079 62.704 77.072C62.704 86.971 54.653 95.023 44.758 95.023Z"></path><path fill="#93b0c8" stroke="" fill-opacity="1" stroke-width="0.5" stroke-opacity="0" color="rgb(51, 51, 51)" fill-rule="evenodd" id="tSvg18cf011b111" title="Path 8" d="M46.251 68.074C46.251 51.112 46.251 34.15 46.251 17.188C46.251 16.0333 45.001 15.3116 44.001 15.889C43.5369 16.1569 43.251 16.6521 43.251 17.188C43.251 34.15 43.251 51.112 43.251 68.074C38.511 68.801 34.865 72.896 34.865 77.838C34.865 83.292 39.3 87.728 44.751 87.728C50.207 87.728 54.645 83.291 54.645 77.838C54.644 72.895 50.995 68.8 46.251 68.074ZM44.751 84.728C40.954 84.728 37.865 81.637 37.865 77.838C37.865 74.039 40.954 70.948 44.751 70.948C48.552 70.948 51.645 74.039 51.645 77.838C51.645 81.637 48.552 84.728 44.751 84.728ZM59.16 17.77C64.3387 17.77 69.5173 17.77 74.696 17.77C75.8507 17.77 76.5724 16.52 75.995 15.52C75.7271 15.0559 75.2319 14.77 74.696 14.77C69.5173 14.77 64.3387 14.77 59.16 14.77C58.0053 14.77 57.2836 16.02 57.861 17.02C58.1289 17.4841 58.6241 17.77 59.16 17.77ZM59.16 33.477C61.7497 33.477 64.3393 33.477 66.929 33.477C68.0837 33.477 68.8054 32.227 68.228 31.227C67.9601 30.7629 67.4649 30.477 66.929 30.477C64.3393 30.477 61.7497 30.477 59.16 30.477C58.0053 30.477 57.2836 31.727 57.861 32.727C58.1289 33.1911 58.6241 33.477 59.16 33.477ZM74.696 47.467C69.5173 47.467 64.3387 47.467 59.16 47.467C58.0053 47.467 57.2836 48.717 57.861 49.717C58.1289 50.1811 58.6241 50.467 59.16 50.467C64.3387 50.467 69.5173 50.467 74.696 50.467C75.8507 50.467 76.5724 49.217 75.995 48.217C75.7271 47.7529 75.2319 47.467 74.696 47.467Z"></path><defs></defs></svg> 