<?xml version="1.0" encoding="UTF-8"?> <svg xmlns="http://www.w3.org/2000/svg" viewBox="0 0 100.00 100.00" data-guides="{&quot;vertical&quot;:[],&quot;horizontal&quot;:[]}"><path fill="#93b0c8" stroke="" fill-opacity="1" stroke-width="0.5" stroke-opacity="0" color="rgb(51, 51, 51)" fill-rule="evenodd" id="tSvgc9165490fb" title="Path 4" d="M85.3 20.33C73.9 15.33 62.5 10.33 51.1 5.33C50.7179 5.1606 50.2821 5.1606 49.9 5.33C38.5 10.33 27.1 15.33 15.7 20.33C15.1342 20.5705 14.7759 21.1357 14.8 21.75C15.32 36.54 15.84 51.33 16.36 66.12C17.1998 76.665 23.7147 85.9161 33.36 90.26C38.8733 92.75 44.3867 95.24 49.9 97.73C50.2922 97.9171 50.7478 97.9171 51.14 97.73C56.6533 95.24 62.1667 92.75 67.68 90.26C77.3461 85.9043 83.8649 76.6208 84.68 66.05C85.2 51.2833 85.72 36.5167 86.24 21.75C86.2576 21.1258 85.8815 20.5576 85.3 20.33ZM81.65 65.88C80.9037 75.332 75.0714 83.6283 66.43 87.53C61.12 89.9267 55.81 92.3233 50.5 94.72C45.19 92.3233 39.88 89.9267 34.57 87.53C25.968 83.646 20.1464 75.4054 19.36 66C18.85 51.5567 18.34 37.1133 17.83 22.67C28.72 17.9 39.61 13.13 50.5 8.36C61.39 13.13 72.28 17.9 83.17 22.67C82.6633 37.0733 82.1567 51.4767 81.65 65.88"></path><path fill="#93b0c8" stroke="" fill-opacity="1" stroke-width="0.5" stroke-opacity="0" color="rgb(51, 51, 51)" fill-rule="evenodd" id="tSvg577718f65c" title="Path 5" d="M40 32.48C40 34.32 40 36.16 40 38C36.5 38 33 38 29.5 38C28.6716 38 28 38.6716 28 39.5C28 49.1667 28 58.8333 28 68.5C28 69.3284 28.6716 70 29.5 70C43.5 70 57.5 70 71.5 70C72.3284 70 73 69.3284 73 68.5C73 58.8333 73 49.1667 73 39.5C73 38.6716 72.3284 38 71.5 38C68 38 64.5 38 61 38C61 36.0433 61 34.0867 61 32.13C60.9969 29.238 59.8034 26.4748 57.7 24.49C55.5948 22.4886 52.7485 21.4589 49.85 21.65C44.2245 22.0976 39.9137 26.8373 40 32.48ZM70 67C57 67 44 67 31 67C31 58.3333 31 49.6667 31 41C44 41 57 41 70 41C70 49.6667 70 58.3333 70 67M55.64 26.67C57.1526 28.082 58.008 30.0608 58 32.13C58 34.0867 58 36.0433 58 38C53 38 48 38 43 38C43 36.16 43 34.32 43 32.48C42.9097 28.4329 45.9686 25.007 50 24.64C52.081 24.4996 54.1258 25.2356 55.64 26.67Z"></path><path fill="#93b0c8" stroke="" fill-opacity="1" stroke-width="0.5" stroke-opacity="0" color="rgb(51, 51, 51)" fill-rule="evenodd" id="tSvg17a74d78e81" title="Path 6" d="M50.5 46.05C46.6516 46.1185 44.3205 50.3273 46.304 53.6259C46.9168 54.6449 47.8726 55.4121 49 55.79C49 57.36 49 58.93 49 60.5C49 61.6547 50.25 62.3764 51.25 61.799C51.7141 61.5311 52 61.0359 52 60.5C52 58.93 52 57.36 52 55.79C55.6495 54.5668 56.6062 49.8516 53.7222 47.3027C52.8312 46.5153 51.6888 46.0712 50.5 46.05ZM50.5 53.05C48.9604 53.05 47.9981 51.3833 48.7679 50.05C49.5377 48.7167 51.4623 48.7167 52.2321 50.05C52.4076 50.354 52.5 50.6989 52.5 51.05C52.5 52.1546 51.6046 53.05 50.5 53.05Z"></path><defs></defs></svg> 