<svg width="54" height="28" viewBox="0 0 54 28" fill="none" xmlns="http://www.w3.org/2000/svg">
<path d="M45.9171 27.9965H51.8285C53.5139 27.9965 54.3607 27.261 53.8543 25.8253C52.5813 23.5895 50.8995 21.5495 48.8748 19.7857C47.4811 18.3501 45.4107 16.8402 44.8232 16.0658C43.9318 15.0721 44.1871 14.6301 44.8232 13.7815C47.9474 10.0741 50.607 6.08503 52.7563 1.8826C53.1331 0.779343 52.7563 0.00494741 50.9857 0.00494741H45.0744C44.5206 -0.0273114 43.9699 0.0988354 43.5056 0.364275C43.0414 0.629715 42.6889 1.01998 42.5016 1.47595C40.6805 5.27747 38.2346 8.82723 35.2411 12.0134C33.8473 13.2298 33.2598 13.5976 32.4981 13.5976C32.1173 13.5976 31.5703 13.2298 31.5703 12.1231V1.8826C31.5703 0.55657 31.1489 0.00494741 29.8808 0.00494741H20.5944C20.2155 -0.00876917 19.8453 0.106879 19.5624 0.327363C19.2796 0.547848 19.1062 0.85583 19.0791 1.186C19.0791 2.43777 21.186 2.73126 21.4372 6.19307V13.7815C21.4372 15.4399 21.1049 15.7334 20.3432 15.7334C18.3579 15.7334 13.4636 9.32603 10.595 1.95686C10.0035 0.59547 9.45651 0.00494741 7.93714 0.00494741H2.02582C0.336285 0.00494741 0 0.705087 0 1.47949C1.53973 7.73283 4.73373 13.5853 9.32685 18.5693C11.2621 21.2731 13.9047 23.5377 17.0375 25.1771C20.1704 26.8165 23.7041 27.784 27.3485 28C31.1044 28 31.5703 27.2645 31.5703 26.0092V21.3699C31.5703 19.8953 31.9066 19.6018 33.1302 19.6018C34.0175 19.6018 35.4963 19.9696 38.9969 22.9151C43.0081 26.4158 43.6806 27.9965 45.9171 27.9965Z" fill="white"/>
</svg>
