<svg width="49" height="35" viewBox="0 0 49 35" fill="none" xmlns="http://www.w3.org/2000/svg">
<path d="M47.9186 5.4808C47.6376 4.42145 47.0893 3.45567 46.3285 2.67964C45.5676 1.90361 44.6207 1.3444 43.5821 1.0577C39.7795 0 24.4756 0 24.4756 0C24.4756 0 9.17085 0.032016 5.36831 1.08972C4.32962 1.37644 3.38271 1.93568 2.62186 2.71174C1.861 3.48781 1.31277 4.45362 1.03173 5.51301C-0.118446 12.4039 -0.564621 22.904 1.06332 29.5192C1.34438 30.5786 1.89263 31.5443 2.65348 32.3204C3.41433 33.0964 4.36123 33.6556 5.39989 33.9423C9.20243 35 24.5068 35 24.5068 35C24.5068 35 39.8109 35 43.6133 33.9423C44.652 33.6556 45.5989 33.0964 46.3598 32.3204C47.1207 31.5444 47.6689 30.5786 47.95 29.5192C49.1632 22.6186 49.537 12.1249 47.9186 5.4808Z" fill="white"/>
<path d="M19.8086 23.6762L32.3192 17.4997L19.8086 11.3232V23.6762Z" fill="#000209"/>
</svg>
